<?xml version="1.0" standalone="no"?>
<!DOCTYPE svg PUBLIC "-//W3C//DTD SVG 20010904//EN"
 "http://www.w3.org/TR/2001/REC-SVG-20010904/DTD/svg10.dtd">
<svg version="1.0" xmlns="http://www.w3.org/2000/svg"
 width="177.000000pt" height="177.000000pt" viewBox="0 0 177.000000 177.000000"
 preserveAspectRatio="xMidYMid meet">
<metadata>
Created by potrace 1.11, written by Peter Selinger 2001-2013
</metadata>
<g transform="translate(0.000000,177.000000) scale(0.100000,-0.100000)"
fill="#000000" stroke="none">
<path d="M725 1535 c-115 -15 -161 -27 -228 -61 -102 -52 -158 -130 -173 -241
-9 -68 9 -138 61 -243 123 -245 277 -405 412 -427 31 -5 33 -8 33 -48 0 -23 3
-90 7 -148 5 -95 4 -107 -10 -107 -14 0 -17 -12 -17 -80 l0 -80 116 0 115 0
-6 73 c-4 39 -13 77 -20 82 -9 7 -15 64 -20 190 l-7 180 49 36 c121 90 252
305 278 457 32 181 -29 310 -178 378 -58 26 -208 55 -277 53 -19 -1 -80 -7
-135 -14z m319 -41 c33 -9 79 -25 103 -36 l45 -21 -34 -33 -33 -34 -50 19
c-140 53 -388 51 -572 -6 -49 -15 -53 -20 -78 -74 -41 -91 -42 -151 -6 -232
17 -37 26 -67 21 -67 -5 0 -12 5 -15 10 -8 12 -25 13 -25 1 0 -5 12 -15 28
-22 25 -13 42 -39 24 -39 -16 0 -59 58 -81 109 -28 66 -32 176 -9 232 37 86
115 145 240 179 153 42 313 47 442 14z m-151 -246 c50 -12 77 -40 77 -80 l0
-33 -18 35 c-22 46 -74 70 -174 80 -43 4 -82 11 -86 14 -8 9 153 -4 201 -16z
m-283 -79 c0 -20 -15 -26 -25 -9 -9 15 3 43 15 35 5 -3 10 -15 10 -26z m175 6
c0 -10 -6 -20 -12 -22 -8 -3 -13 5 -13 22 0 17 5 25 13 23 6 -3 12 -13 12 -23z
m-127 -123 c7 -5 10 -16 6 -26 -4 -10 -2 -21 5 -26 7 -4 -27 -16 -81 -29 -114
-26 -118 -26 -118 -1 0 11 6 20 14 20 7 0 43 16 80 35 73 38 75 39 94 27z
m186 -12 c38 -11 73 -25 78 -32 5 -9 10 -10 16 -2 4 6 16 14 27 18 19 7 19 6
-1 -14 -27 -27 -80 -34 -188 -25 -62 5 -84 10 -79 18 4 7 6 20 5 29 -5 31 50
35 142 8z m-365 -100 c31 0 170 -219 171 -269 0 -37 -139 128 -205 243 -26 44
-27 48 -7 37 11 -6 30 -11 41 -11z m355 -65 c9 -58 1 -82 -29 -87 -22 -5 -24
-2 -27 59 -3 63 1 71 33 72 12 1 19 -11 23 -44z m-74 -32 l-1 -68 -19 24 c-13
15 -20 38 -20 67 0 37 3 44 20 44 18 0 20 -7 20 -67z"/>
<path d="M375 1299 c-10 -15 3 -25 16 -12 7 7 7 13 1 17 -6 3 -14 1 -17 -5z"/>
<path d="M610 1010 c0 -5 5 -10 10 -10 6 0 10 5 10 10 0 6 -4 10 -10 10 -5 0
-10 -4 -10 -10z"/>
<path d="M561 994 c0 -11 3 -14 6 -6 3 7 2 16 -1 19 -3 4 -6 -2 -5 -13z"/>
<path d="M510 974 c0 -8 5 -12 10 -9 6 4 8 11 5 16 -9 14 -15 11 -15 -7z"/>
<path d="M740 1020 c0 -5 5 -10 11 -10 5 0 7 5 4 10 -3 6 -8 10 -11 10 -2 0
-4 -4 -4 -10z"/>
<path d="M810 1010 c0 -5 5 -10 10 -10 6 0 10 5 10 10 0 6 -4 10 -10 10 -5 0
-10 -4 -10 -10z"/>
<path d="M875 1011 c-3 -5 -1 -12 5 -16 5 -3 10 1 10 9 0 18 -6 21 -15 7z"/>
</g>
</svg>
